<svg width="228" height="127" viewBox="0 0 228 127" fill="none" xmlns="http://www.w3.org/2000/svg">
<path fill-rule="evenodd" clip-rule="evenodd" d="M90.989 16.3265C90.7898 16.5427 90.6426 16.9831 90.6516 17.3353C90.6669 17.9332 92.0958 32.1376 92.1487 32.217C92.1875 32.275 108.965 34.5578 109.012 34.5115C109.034 34.4894 108.839 33.6528 108.578 32.6526C108.316 31.6521 108.101 30.7392 108.099 30.6238C108.096 30.5085 108.469 30.3056 108.926 30.173C111.178 29.5195 113.201 27.7628 113.973 25.7894C114.233 25.1244 114.442 24.0736 114.497 23.148C114.577 21.8219 114.539 21.5669 114.226 21.2908C113.886 20.9917 113.688 20.9945 111.223 21.335C109.771 21.5354 108.056 21.7792 107.41 21.877L106.237 22.0548L104.967 20.8345C104.268 20.1632 103.448 19.523 103.146 19.4117C102.831 19.296 100.944 19.2059 98.7469 19.2015L94.8985 19.1938L94.0187 18.0291C92.9972 16.6766 92.1773 15.9428 91.688 15.9428C91.4979 15.9428 91.1834 16.1156 90.989 16.3265Z" fill="#0057FF"/>
<path d="M95.5198 0.489059C91.2563 1.4046 87.2632 3.76509 84.5205 7.16345C81.3984 11.0325 79.729 15.2202 79.1445 20.6502C78.3613 27.9265 80.7882 36.3437 85.804 43.748C88.0354 47.042 89.6313 48.9311 92.8332 52.0695C97.1923 56.3419 101.555 59.6509 107.399 63.1158C110.378 64.6547 111.062 64.6547 112.235 64.9013C113.213 64.9013 113.938 64.7009 113.764 63.4176C113.764 63.1992 112.833 60.3609 111.696 57.1103L109.627 51.2003L110.042 49.375C110.886 45.6584 110.888 41.681 110.047 38.9514C109.827 38.238 109.605 37.6545 109.554 37.6545C109.503 37.6545 105.577 37.0925 100.831 36.4056C96.0853 35.7187 92.1282 35.1567 92.0379 35.1567C91.9474 35.1567 91.2211 36.1159 90.4242 37.2881L88.975 39.4193L88.2413 38.1299C86.5522 35.1613 84.9395 30.4297 84.4449 26.9908C84.1583 24.9978 84.2034 21.2161 84.5362 19.3404C84.9119 17.2232 85.9506 14.3736 87.0194 12.5287C88.0782 10.7009 90.3173 8.34164 92.0964 7.1792C94.8206 5.39923 97.6036 4.60666 101.129 4.60666C103.431 4.60666 105.371 4.92003 107.578 5.64824C109.223 6.19084 110.044 6.26231 110.698 5.92031C111.332 5.58829 111.601 5.15982 111.607 4.46928C111.617 3.47765 110.705 2.64031 108.725 1.82526C107.787 1.43906 106.184 0.902991 105.162 0.634189C103.652 0.236847 102.675 0.0686597 100.212 0.00871243C97.7733 -0.0504663 96.8625 0.200851 95.5198 0.489059Z" fill="#0057FF"/>
<path d="M118.926 11.4756C119.098 12.4532 119.237 13.5772 119.237 13.9734C119.236 14.5458 118.854 15.3036 117.379 17.6579C116.359 19.288 115.524 20.6973 115.524 20.7897C115.524 21.4401 116.832 22.8852 117.652 23.1411C118.089 23.2773 118.328 23.9892 118.049 24.3205C117.774 24.6452 118.037 25.5215 118.479 25.7538C118.726 25.8837 118.847 26.1571 118.847 26.5835C118.847 27.2052 119.324 27.8554 119.78 27.8554C120.252 27.8554 120.607 28.7185 120.608 29.8677C120.608 31.2136 121.098 32.1957 121.863 32.3843C122.514 32.5448 124.681 32.1705 127.224 31.458C128.369 31.1372 129.761 30.8653 130.317 30.8541C131.132 30.8376 131.425 30.9227 131.826 31.2936C132.649 32.0537 133.009 33.4365 133.007 35.8292C133.005 38.3743 132.642 39.7333 131.664 40.8553C122.177 42.8695 120.428 44.8858 119.371 48.9954L116.243 63.2136C115.95 64.7507 116.732 65.2311 118.049 64.9013C119.366 64.5715 147.523 45.2683 150.651 25.7894C153.779 6.31045 135.206 -3.53495 122.168 1.17244C118.049 3.36243 118.479 10.5676 118.926 11.4756Z" fill="#0057FF"/>
<path d="M5.136 96V85.08L5.76 86.016L12.696 96H15.816V79.68H12.696V90.576L11.664 89.112L5.136 79.68H2.04V96H5.136ZM27.8914 89.616H23.5714L25.7074 83.952L27.8914 89.616ZM24.4594 79.68L18.0994 96H21.2194L22.6594 92.16H28.8514L30.3154 96.24L33.4354 95.808L27.0994 79.68H24.4594ZM47.1197 79.68H33.9197V82.128H38.8877V96H42.0317V82.128H47.6237L47.1197 79.68ZM57.8914 89.616H53.5714L55.7074 83.952L57.8914 89.616ZM54.4594 79.68L48.0994 96H51.2194L52.6594 92.16H58.8514L60.3154 96.24L63.4354 95.808L57.0994 79.68H54.4594ZM76.0397 93.576H68.8157V79.68H65.7197V96H76.4957L76.0397 93.576ZM81.8704 96V79.68H78.7744V96H81.8704ZM92.5943 96V89.76L98.2583 79.68H94.9943L91.0103 86.496L87.2183 79.344L84.1463 80.232L89.4743 89.64V96H92.5943ZM108.54 89.616H104.22L106.356 83.952L108.54 89.616ZM105.108 79.68L98.7478 96H101.868L103.308 92.16H109.5L110.964 96.24L114.084 95.808L107.748 79.68H105.108ZM129.583 92.64C129.231 92.896 128.831 93.096 128.383 93.24C127.951 93.384 127.471 93.456 126.943 93.456C126.415 93.456 125.911 93.368 125.431 93.192C124.967 93 124.583 92.696 124.279 92.28C123.991 91.864 123.847 91.336 123.847 90.696C123.863 90.248 123.951 89.824 124.111 89.424C124.271 89.024 124.511 88.648 124.831 88.296C125.023 88.456 125.191 88.608 125.335 88.752C125.495 88.896 125.663 89.048 125.839 89.208L129.583 92.64ZM133.639 96.36L135.511 94.032L133.615 92.4C133.903 91.728 134.143 91.016 134.335 90.264C134.543 89.496 134.671 88.696 134.719 87.864L131.887 86.736C131.871 87.408 131.799 88.04 131.671 88.632C131.559 89.208 131.407 89.736 131.215 90.216L127.375 86.76C126.927 86.344 126.559 85.976 126.271 85.656C125.999 85.32 125.791 85 125.647 84.696C125.503 84.376 125.431 84.064 125.431 83.76C125.431 83.44 125.503 83.152 125.647 82.896C125.807 82.64 126.023 82.432 126.295 82.272C126.567 82.096 126.895 82.008 127.279 82.008C127.967 82.008 128.575 82.112 129.103 82.32C129.631 82.512 130.151 82.744 130.663 83.016L131.743 80.52C131.087 80.152 130.367 79.856 129.583 79.632C128.815 79.408 128.039 79.296 127.255 79.296C126.231 79.296 125.335 79.512 124.567 79.944C123.815 80.36 123.223 80.912 122.791 81.6C122.375 82.288 122.167 83.048 122.167 83.88C122.167 84.312 122.231 84.72 122.359 85.104C122.487 85.472 122.663 85.816 122.887 86.136C122.183 86.712 121.623 87.408 121.207 88.224C120.791 89.024 120.575 89.856 120.559 90.72C120.559 91.936 120.847 92.952 121.423 93.768C121.999 94.584 122.767 95.2 123.727 95.616C124.703 96.032 125.775 96.248 126.943 96.264C127.967 96.264 128.879 96.12 129.679 95.832C130.495 95.544 131.215 95.16 131.839 94.68L133.639 96.36ZM150.228 96C151.092 96 151.876 95.896 152.58 95.688C153.3 95.464 153.916 95.144 154.428 94.728C154.94 94.312 155.324 93.808 155.58 93.216C155.852 92.624 155.988 91.952 155.988 91.2C155.988 90.192 155.748 89.36 155.268 88.704C154.804 88.048 154.204 87.528 153.468 87.144C153.916 86.792 154.324 86.376 154.692 85.896C155.06 85.4 155.244 84.848 155.244 84.24C155.244 83.136 155.012 82.256 154.548 81.6C154.1 80.928 153.468 80.44 152.652 80.136C151.852 79.832 150.924 79.68 149.868 79.68H143.532V96H150.228ZM149.412 82.272C149.94 82.272 150.388 82.336 150.756 82.464C151.14 82.576 151.428 82.784 151.62 83.088C151.828 83.376 151.932 83.776 151.932 84.288C151.932 84.752 151.804 85.136 151.548 85.44C151.292 85.744 150.932 85.968 150.468 86.112C150.02 86.256 149.508 86.328 148.932 86.328H146.628V82.272H149.412ZM150.204 88.848C150.972 88.848 151.588 89.056 152.052 89.472C152.516 89.872 152.748 90.456 152.748 91.224C152.748 91.688 152.628 92.088 152.388 92.424C152.164 92.744 151.844 92.992 151.428 93.168C151.028 93.344 150.548 93.432 149.988 93.432H146.628V88.848H150.204ZM170.05 96L169.522 93.576H161.722V88.992H167.554L167.05 86.52H161.722V82.128H168.85L168.37 79.68H158.626V96H170.05ZM175.667 96V85.08L176.291 86.016L183.227 96H186.347V79.68H183.227V90.576L182.195 89.112L175.667 79.68H172.571V96H175.667ZM193.527 96V79.68H190.431V96H193.527ZM209.003 79.68H195.803V82.128H200.771V96H203.915V82.128H209.507L209.003 79.68ZM218.574 96.336C216.878 96.336 215.43 95.96 214.23 95.208C213.046 94.456 212.142 93.44 211.518 92.16C210.894 90.88 210.582 89.464 210.582 87.912C210.582 86.232 210.918 84.752 211.59 83.472C212.262 82.192 213.198 81.184 214.398 80.448C215.598 79.712 216.99 79.328 218.574 79.296C220.286 79.296 221.734 79.68 222.918 80.448C224.118 81.2 225.022 82.208 225.63 83.472C226.254 84.736 226.566 86.152 226.566 87.72C226.566 89.416 226.23 90.904 225.558 92.184C224.886 93.464 223.958 94.472 222.774 95.208C221.59 95.928 220.19 96.304 218.574 96.336ZM218.574 93.72C219.454 93.72 220.246 93.504 220.95 93.072C221.67 92.624 222.246 91.96 222.678 91.08C223.126 90.2 223.35 89.088 223.35 87.744C223.35 86.608 223.158 85.608 222.774 84.744C222.406 83.88 221.862 83.2 221.142 82.704C220.438 82.192 219.598 81.936 218.622 81.936C217.774 81.936 216.982 82.184 216.246 82.68C215.51 83.176 214.918 83.864 214.47 84.744C214.038 85.624 213.822 86.672 213.822 87.888C213.822 89.024 214.014 90.032 214.398 90.912C214.782 91.792 215.326 92.48 216.03 92.976C216.75 93.472 217.598 93.72 218.574 93.72Z" fill="#0057FF"/>
<path d="M55.72 117.66H50.28V124H48.6V110.04H50.28V116.2H55.72V110.04H57.4V124H55.72V117.66ZM67.4322 122.32H67.3522C67.2455 122.573 67.1122 122.82 66.9522 123.06C66.7922 123.287 66.5922 123.487 66.3522 123.66C66.1255 123.833 65.8522 123.973 65.5322 124.08C65.2122 124.187 64.8389 124.24 64.4122 124.24C63.3322 124.24 62.4655 123.9 61.8122 123.22C61.1589 122.527 60.8322 121.553 60.8322 120.3V113.68H62.4322V120.02C62.4322 120.967 62.6389 121.673 63.0522 122.14C63.4655 122.593 64.0722 122.82 64.8722 122.82C65.1922 122.82 65.5055 122.78 65.8122 122.7C66.1189 122.62 66.3922 122.5 66.6322 122.34C66.8722 122.18 67.0655 121.98 67.2122 121.74C67.3589 121.487 67.4322 121.187 67.4322 120.84V113.68H69.0322V124H67.4322V122.32ZM72.9444 124V113.68H74.5444V115.36H74.6244C74.731 115.107 74.8644 114.867 75.0244 114.64C75.1844 114.4 75.3777 114.193 75.6044 114.02C75.8444 113.847 76.1244 113.707 76.4444 113.6C76.7644 113.493 77.1377 113.44 77.5644 113.44C78.6444 113.44 79.511 113.787 80.1644 114.48C80.8177 115.16 81.1444 116.127 81.1444 117.38V124H79.5444V117.66C79.5444 116.713 79.3377 116.013 78.9244 115.56C78.511 115.093 77.9044 114.86 77.1044 114.86C76.7844 114.86 76.471 114.9 76.1644 114.98C75.8577 115.06 75.5844 115.18 75.3444 115.34C75.1044 115.5 74.911 115.707 74.7644 115.96C74.6177 116.213 74.5444 116.507 74.5444 116.84V124H72.9444ZM91.4766 122.32H91.3966C90.7299 123.6 89.6699 124.24 88.2166 124.24C86.9499 124.24 85.9566 123.767 85.2366 122.82C84.5299 121.873 84.1766 120.547 84.1766 118.84C84.1766 117.133 84.5299 115.807 85.2366 114.86C85.9566 113.913 86.9499 113.44 88.2166 113.44C89.6699 113.44 90.7299 114.08 91.3966 115.36H91.4766V109.2H93.0766V124H91.4766V122.32ZM88.8366 122.82C89.1966 122.82 89.5366 122.773 89.8566 122.68C90.1766 122.587 90.4566 122.453 90.6966 122.28C90.9366 122.093 91.1232 121.873 91.2566 121.62C91.4032 121.353 91.4766 121.047 91.4766 120.7V116.98C91.4766 116.633 91.4032 116.333 91.2566 116.08C91.1232 115.813 90.9366 115.593 90.6966 115.42C90.4566 115.233 90.1766 115.093 89.8566 115C89.5366 114.907 89.1966 114.86 88.8366 114.86C87.9032 114.86 87.1766 115.147 86.6566 115.72C86.1499 116.28 85.8966 117.027 85.8966 117.96V119.72C85.8966 120.653 86.1499 121.407 86.6566 121.98C87.1766 122.54 87.9032 122.82 88.8366 122.82ZM101.149 124.24C100.402 124.24 99.7288 124.113 99.1288 123.86C98.5421 123.607 98.0354 123.247 97.6087 122.78C97.1954 122.3 96.8754 121.733 96.6488 121.08C96.4221 120.413 96.3088 119.673 96.3088 118.86C96.3088 118.033 96.4221 117.287 96.6488 116.62C96.8888 115.953 97.2154 115.387 97.6288 114.92C98.0421 114.44 98.5354 114.073 99.1088 113.82C99.6954 113.567 100.342 113.44 101.049 113.44C101.742 113.44 102.369 113.567 102.929 113.82C103.502 114.073 103.989 114.427 104.389 114.88C104.789 115.32 105.095 115.847 105.309 116.46C105.522 117.073 105.629 117.747 105.629 118.48V119.24H97.9888V119.72C97.9888 120.173 98.0621 120.593 98.2088 120.98C98.3554 121.367 98.5621 121.7 98.8288 121.98C99.1088 122.26 99.4421 122.48 99.8288 122.64C100.229 122.787 100.669 122.86 101.149 122.86C101.842 122.86 102.442 122.7 102.949 122.38C103.455 122.06 103.842 121.62 104.109 121.06L105.289 121.86C104.982 122.553 104.469 123.127 103.749 123.58C103.042 124.02 102.175 124.24 101.149 124.24ZM101.049 114.76C100.609 114.76 100.202 114.84 99.8288 115C99.4554 115.16 99.1288 115.38 98.8488 115.66C98.5821 115.94 98.3688 116.273 98.2088 116.66C98.0621 117.033 97.9888 117.447 97.9888 117.9V118.04H103.909V117.82C103.909 117.367 103.835 116.953 103.689 116.58C103.555 116.207 103.362 115.887 103.109 115.62C102.869 115.34 102.569 115.127 102.209 114.98C101.862 114.833 101.475 114.76 101.049 114.76ZM113.081 124.24C112.001 124.24 111.068 124.06 110.281 123.7C109.508 123.327 108.848 122.833 108.301 122.22L109.381 121.28C109.874 121.8 110.414 122.2 111.001 122.48C111.588 122.76 112.294 122.9 113.121 122.9C113.921 122.9 114.574 122.76 115.081 122.48C115.601 122.187 115.861 121.733 115.861 121.12C115.861 120.853 115.808 120.633 115.701 120.46C115.608 120.273 115.474 120.127 115.301 120.02C115.128 119.913 114.934 119.833 114.721 119.78C114.508 119.713 114.281 119.66 114.041 119.62L112.421 119.38C112.061 119.327 111.668 119.253 111.241 119.16C110.828 119.067 110.448 118.92 110.101 118.72C109.754 118.507 109.461 118.227 109.221 117.88C108.994 117.533 108.881 117.08 108.881 116.52C108.881 116 108.981 115.553 109.181 115.18C109.394 114.793 109.688 114.473 110.061 114.22C110.434 113.953 110.874 113.76 111.381 113.64C111.888 113.507 112.441 113.44 113.041 113.44C113.974 113.44 114.781 113.587 115.461 113.88C116.154 114.173 116.748 114.58 117.241 115.1L116.201 116.08C116.081 115.933 115.928 115.787 115.741 115.64C115.568 115.48 115.348 115.34 115.081 115.22C114.828 115.087 114.528 114.98 114.181 114.9C113.834 114.82 113.434 114.78 112.981 114.78C112.168 114.78 111.541 114.92 111.101 115.2C110.674 115.48 110.461 115.887 110.461 116.42C110.461 116.687 110.508 116.913 110.601 117.1C110.708 117.273 110.848 117.413 111.021 117.52C111.194 117.627 111.388 117.713 111.601 117.78C111.828 117.833 112.054 117.88 112.281 117.92L113.901 118.16C114.274 118.213 114.668 118.287 115.081 118.38C115.494 118.473 115.874 118.627 116.221 118.84C116.568 119.04 116.854 119.313 117.081 119.66C117.321 120.007 117.441 120.46 117.441 121.02C117.441 122.047 117.041 122.84 116.241 123.4C115.454 123.96 114.401 124.24 113.081 124.24ZM125.313 124.24C124.566 124.24 123.9 124.113 123.313 123.86C122.74 123.593 122.253 123.227 121.853 122.76C121.453 122.293 121.146 121.727 120.933 121.06C120.733 120.393 120.633 119.653 120.633 118.84C120.633 118.027 120.74 117.287 120.953 116.62C121.166 115.953 121.473 115.387 121.873 114.92C122.273 114.44 122.76 114.073 123.333 113.82C123.906 113.567 124.56 113.44 125.293 113.44C126.293 113.44 127.106 113.66 127.733 114.1C128.36 114.54 128.82 115.113 129.113 115.82L127.833 116.5C127.646 115.967 127.333 115.553 126.893 115.26C126.466 114.967 125.933 114.82 125.293 114.82C124.826 114.82 124.406 114.9 124.033 115.06C123.673 115.207 123.366 115.42 123.113 115.7C122.86 115.98 122.666 116.313 122.533 116.7C122.413 117.087 122.353 117.507 122.353 117.96V119.72C122.353 120.173 122.413 120.593 122.533 120.98C122.666 121.367 122.86 121.7 123.113 121.98C123.366 122.26 123.68 122.48 124.053 122.64C124.426 122.787 124.853 122.86 125.333 122.86C126.026 122.86 126.6 122.7 127.053 122.38C127.506 122.06 127.866 121.62 128.133 121.06L129.273 121.84C128.966 122.533 128.486 123.107 127.833 123.56C127.193 124.013 126.353 124.24 125.313 124.24ZM132.905 109.2H134.505V115.36H134.585C134.692 115.107 134.825 114.867 134.985 114.64C135.145 114.4 135.339 114.193 135.565 114.02C135.805 113.847 136.085 113.707 136.405 113.6C136.725 113.493 137.099 113.44 137.525 113.44C138.605 113.44 139.472 113.787 140.125 114.48C140.779 115.16 141.105 116.127 141.105 117.38V124H139.505V117.66C139.505 116.713 139.299 116.013 138.885 115.56C138.472 115.093 137.865 114.86 137.065 114.86C136.745 114.86 136.432 114.9 136.125 114.98C135.819 115.06 135.545 115.18 135.305 115.34C135.065 115.5 134.872 115.707 134.725 115.96C134.579 116.213 134.505 116.507 134.505 116.84V124H132.905V109.2ZM151.378 122.32H151.298C151.191 122.573 151.058 122.82 150.898 123.06C150.738 123.287 150.538 123.487 150.298 123.66C150.071 123.833 149.798 123.973 149.478 124.08C149.158 124.187 148.784 124.24 148.358 124.24C147.278 124.24 146.411 123.9 145.758 123.22C145.104 122.527 144.778 121.553 144.778 120.3V113.68H146.378V120.02C146.378 120.967 146.584 121.673 146.998 122.14C147.411 122.593 148.018 122.82 148.817 122.82C149.138 122.82 149.451 122.78 149.758 122.7C150.064 122.62 150.338 122.5 150.578 122.34C150.818 122.18 151.011 121.98 151.158 121.74C151.304 121.487 151.378 121.187 151.378 120.84V113.68H152.978V124H151.378V122.32ZM156.53 122.64H160.13V110.56H156.53V109.2H161.73V122.64H165.33V124H156.53V122.64ZM173.102 124.24C172.355 124.24 171.682 124.113 171.082 123.86C170.495 123.607 169.989 123.247 169.562 122.78C169.149 122.3 168.829 121.733 168.602 121.08C168.375 120.413 168.262 119.673 168.262 118.86C168.262 118.033 168.375 117.287 168.602 116.62C168.842 115.953 169.169 115.387 169.582 114.92C169.995 114.44 170.489 114.073 171.062 113.82C171.649 113.567 172.295 113.44 173.002 113.44C173.695 113.44 174.322 113.567 174.882 113.82C175.455 114.073 175.942 114.427 176.342 114.88C176.742 115.32 177.049 115.847 177.262 116.46C177.475 117.073 177.582 117.747 177.582 118.48V119.24H169.942V119.72C169.942 120.173 170.015 120.593 170.162 120.98C170.309 121.367 170.515 121.7 170.782 121.98C171.062 122.26 171.395 122.48 171.782 122.64C172.182 122.787 172.622 122.86 173.102 122.86C173.795 122.86 174.395 122.7 174.902 122.38C175.409 122.06 175.795 121.62 176.062 121.06L177.242 121.86C176.935 122.553 176.422 123.127 175.702 123.58C174.995 124.02 174.129 124.24 173.102 124.24ZM173.002 114.76C172.562 114.76 172.155 114.84 171.782 115C171.409 115.16 171.082 115.38 170.802 115.66C170.535 115.94 170.322 116.273 170.162 116.66C170.015 117.033 169.942 117.447 169.942 117.9V118.04H175.862V117.82C175.862 117.367 175.789 116.953 175.642 116.58C175.509 116.207 175.315 115.887 175.062 115.62C174.822 115.34 174.522 115.127 174.162 114.98C173.815 114.833 173.429 114.76 173.002 114.76Z" fill="#0057FF"/>
</svg>
