<svg width="394" height="231" viewBox="0 0 394 231" fill="none" xmlns="http://www.w3.org/2000/svg">
<path fill-rule="evenodd" clip-rule="evenodd" d="M222.796 53.9228C221.762 54.3664 221.171 54.5568 220.923 54.5267C220.724 54.5026 220.365 54.3397 220.124 54.1648C219.795 53.9251 219.656 53.7493 219.562 53.4507C219.17 52.2101 220.317 50.9905 221.629 51.2523C222.091 51.3443 222.212 51.4257 223.218 52.3134L224.307 53.2749L222.796 53.9228ZM227.707 47.004C226.687 46.1379 226.56 45.9987 226.406 45.5805C226.189 44.9885 226.321 44.2654 226.736 43.7728C227.112 43.3261 227.665 43.1149 228.244 43.1967C228.554 43.2405 228.75 43.348 229.041 43.6336C229.253 43.8419 229.473 44.1698 229.53 44.3623C229.601 44.6028 229.509 45.2207 229.236 46.3381L228.838 47.9639L227.707 47.004ZM215.876 53.6888C215.301 54.0472 214.328 54.3266 213.741 54.3028C213.067 54.2753 211.203 53.9155 210.383 53.6545C208.065 52.917 205.7 51.3957 204.725 50.0145C203.738 48.6167 203.366 46.728 203.769 45.1574C204.026 44.1529 204.369 43.4855 205.022 42.7136C205.999 41.5595 207.358 40.8759 208.933 40.7453C210.083 40.6498 211.239 40.8398 212.4 41.3145C213.009 41.5633 213.454 41.8377 214.226 42.4401C215.438 43.3856 216.343 44.4024 217.212 45.7956C217.998 47.0562 218.492 48.2674 218.542 49.0553C218.564 49.4126 218.514 49.9976 218.429 50.3552C218.285 50.9688 218.22 51.0735 217.281 52.2195C216.586 53.0678 216.163 53.5105 215.876 53.6888ZM225.428 42.3702C224.373 42.9922 223.362 43.0801 221.865 42.6799C220.652 42.3556 219.256 41.7341 218.081 40.9949C216.954 40.2856 215.66 39.0466 215.094 38.1333C214.434 37.069 214.056 35.9591 213.96 34.8085C213.829 33.2328 214.279 31.7805 215.256 30.6264C215.91 29.8547 216.512 29.4067 217.458 28.9879C218.973 28.3172 220.927 28.3835 222.45 29.1571C223.73 29.8082 225.279 31.3695 226.352 33.0929C226.94 34.0367 227.69 35.7368 228.014 36.8624C228.243 37.6569 228.175 38.8056 227.858 39.5269C227.544 40.2387 226.022 42.0201 225.428 42.3702ZM203.336 55.6802C202.146 55.7762 201.003 55.814 200.797 55.7639C199.914 55.5502 199.295 54.5686 199.469 53.6584C199.553 53.2198 199.656 53.0616 200.527 52.03C201.415 50.9793 201.501 50.9009 201.598 51.0548C202.329 52.2131 203.359 53.4379 204.663 54.6971L205.5 55.5056L203.336 55.6802ZM226.903 28.2249C225.53 27.1898 224.476 26.5689 222.916 25.877C222.751 25.8038 222.815 25.7043 223.704 24.6569C224.578 23.6274 224.717 23.5 225.136 23.345C226.035 23.0122 227.085 23.4771 227.449 24.3686C227.543 24.5984 227.694 25.7375 227.784 26.8999L227.949 29.0134L226.903 28.2249ZM197.909 50.8399C196.854 51.4619 195.844 51.5498 194.347 51.1496C193.134 50.8253 191.738 50.2038 190.563 49.4645C189.435 48.7553 188.142 47.5163 187.576 46.603C186.916 45.5387 186.537 44.4287 186.442 43.2782C186.311 41.7025 186.761 40.2502 187.738 39.0961C188.392 38.3244 188.994 37.8764 189.94 37.4576C191.455 36.7869 193.409 36.8532 194.931 37.6268C196.212 38.2778 197.76 39.8392 198.834 41.5625C199.422 42.5064 200.171 44.2065 200.496 45.3321C200.724 46.1265 200.657 47.2753 200.339 47.9966C200.026 48.7084 198.503 50.4898 197.909 50.8399ZM219.693 25.1507C219.117 25.509 218.145 25.7885 217.557 25.7646C216.883 25.7372 215.02 25.3774 214.199 25.1163C211.881 24.3788 209.516 22.8575 208.541 21.4764C207.554 20.0786 207.182 18.1898 207.585 16.6192C207.843 15.6148 208.185 14.9474 208.839 14.1754C209.816 13.0213 211.174 12.3377 212.75 12.2071C213.899 12.1117 215.055 12.3016 216.217 12.7764C216.825 13.0252 217.27 13.2995 218.043 13.902C219.255 14.8474 220.159 15.8642 221.028 17.2575C221.815 18.5181 222.309 19.7292 222.358 20.5171C222.381 20.8745 222.33 21.4595 222.246 21.8171C222.101 22.4307 222.037 22.5353 221.098 23.6813C220.403 24.5297 219.979 24.9724 219.693 25.1507ZM204.314 33.9564C202.652 35.2025 200.576 35.7725 198.575 35.5319C197.347 35.3842 196.411 35.0584 195.311 34.3954C194.744 34.0534 194.125 33.7737 193.678 33.6567C192.675 33.3944 191.55 33.5166 190.297 34.0236C189.731 34.2527 188.918 34.5241 188.49 34.6268C187.036 34.9756 185.284 34.8128 183.638 34.1762C182.884 33.8846 182.664 33.7437 181.713 32.9455C180.738 32.1272 180.6 31.975 180.215 31.2931C179.384 29.8198 179.226 28.0037 179.783 26.3383C180.036 25.5829 180.048 25.5665 181.716 23.5958C183.611 21.3577 183.799 21.1997 185.66 20.269C186.239 19.9794 186.936 19.5799 187.208 19.3812C187.846 18.9149 188.955 17.6039 189.305 16.9017C189.455 16.5999 189.762 15.7751 189.987 15.0687C190.596 13.1623 190.98 12.5299 192.76 10.5043C194.171 8.89855 194.278 8.79696 194.948 8.43616C196.495 7.60181 198.29 7.45915 199.902 8.04242C200.639 8.30922 200.81 8.41918 201.779 9.24647C202.723 10.0527 202.898 10.2468 203.31 10.9424C204.563 13.0579 204.848 15.0616 204.256 17.5975C203.974 18.8085 204.048 20.0232 204.46 20.9447C204.632 21.3287 205.023 21.9202 205.39 22.3498C206.402 23.5362 206.829 24.3408 207.186 25.7389C207.587 27.3116 207.458 29.076 206.823 30.6708C206.547 31.3642 206.337 31.7048 205.673 32.5334C205.139 33.1992 204.673 33.6879 204.314 33.9564Z" fill="white"/>
<path fill-rule="evenodd" clip-rule="evenodd" d="M53.0588 88.306C52.1288 88.9401 51.5862 89.2402 51.3371 89.2583C51.137 89.2729 50.7528 89.1822 50.4832 89.0567C50.1137 88.8848 49.9441 88.7388 49.7942 88.4639C49.1715 87.3216 50.0627 85.9045 51.4006 85.9094C51.8713 85.9111 52.0064 85.9675 53.1636 86.6456L54.4168 87.3801L53.0588 88.306ZM56.5497 80.5728C55.3819 79.9188 55.2304 79.8067 54.9997 79.4256C54.673 78.8863 54.6635 78.1514 54.9759 77.5883C55.2592 77.0777 55.761 76.7643 56.3453 76.7333C56.658 76.7168 56.8712 76.7845 57.2114 77.009C57.4596 77.1727 57.7385 77.4522 57.831 77.6303C57.9467 77.8527 57.975 78.4767 57.9217 79.6258L57.844 81.2976L56.5497 80.5728ZM46.223 89.4054C45.727 89.8677 44.8264 90.3286 44.2448 90.4182C43.5785 90.5206 41.6806 90.5254 40.8252 90.4268C38.4086 90.1482 35.7955 89.1095 34.5732 87.9414C33.336 86.7591 32.6085 84.9769 32.7021 83.3583C32.7619 82.323 32.9698 81.6023 33.463 80.7192C34.2003 79.3989 35.4019 78.4672 36.9232 78.0363C38.0328 77.722 39.2041 77.6863 40.435 77.9291C41.0801 78.0564 41.5696 78.2401 42.4431 78.6831C43.8141 79.3782 44.8973 80.2023 46.0176 81.4027C47.0314 82.4888 47.749 83.5825 47.949 84.3462C48.0398 84.6926 48.1025 85.2764 48.0884 85.6436C48.0641 86.2736 48.0208 86.3886 47.3194 87.6936C46.8002 88.6597 46.4698 89.1755 46.223 89.4054ZM53.4227 76.4631C52.5067 77.2762 51.5317 77.5565 49.986 77.4512C48.7334 77.3659 47.2442 77.024 45.9487 76.5244C44.7059 76.0449 43.1985 75.0774 42.4674 74.2898C41.6156 73.372 41.0309 72.3555 40.7161 71.2446C40.285 69.7234 40.448 68.2117 41.1853 66.8914C41.6783 66.0086 42.183 65.4533 43.0314 64.8605C44.3895 63.9113 46.3199 63.6011 47.9623 64.0679C49.3443 64.4609 51.1636 65.6958 52.5482 67.1809C53.3064 67.9943 54.3684 69.5188 54.9028 70.5611C55.2801 71.2968 55.4346 72.4372 55.2613 73.2061C55.0903 73.9648 53.9384 76.0054 53.4227 76.4631ZM34.2989 93.7682C33.1493 94.091 32.0351 94.3475 31.823 94.3381C30.9156 94.2979 30.1198 93.4533 30.1157 92.5267C30.1137 92.0802 30.1842 91.9051 30.8411 90.7254C31.5103 89.5238 31.5798 89.4303 31.7046 89.5627C32.6441 90.5592 33.8909 91.5632 35.4123 92.5485L36.3891 93.1812L34.2989 93.7682ZM52.1541 62.2977C50.6076 61.5457 49.4536 61.1388 47.7903 60.7593C47.6142 60.7191 47.6581 60.6092 48.3293 59.4106C48.9891 58.2324 49.1012 58.0807 49.4824 57.8481C50.3007 57.3489 51.4208 57.6034 51.9489 58.4084C52.0849 58.616 52.4519 59.7048 52.7642 60.8282L53.332 62.8706L52.1541 62.2977ZM28.0434 90.0603C27.1274 90.8733 26.1524 91.1537 24.6067 91.0484C23.3541 90.9631 21.8649 90.6212 20.5694 90.1215C19.3266 89.6421 17.8192 88.6746 17.0882 87.887C16.2363 86.9692 15.6516 85.9526 15.3369 84.8418C14.9057 83.3206 15.0687 81.8089 15.806 80.4886C16.299 79.6058 16.8038 79.0505 17.6521 78.4577C19.0102 77.5085 20.9406 77.1983 22.583 77.6651C23.965 78.0581 25.7843 79.293 27.1689 80.7781C27.9272 81.5915 28.9891 83.116 29.5236 84.1583C29.9008 84.894 30.0553 86.0343 29.882 86.8032C29.7111 87.562 28.5591 89.6026 28.0434 90.0603ZM44.4874 60.6656C43.9914 61.1278 43.0908 61.5888 42.5092 61.6783C41.8429 61.7807 39.945 61.7856 39.0895 61.6869C36.6729 61.4084 34.0599 60.3696 32.8376 59.2015C31.6004 58.0193 30.8728 56.2371 30.9664 54.6184C31.0263 53.5832 31.2342 52.8624 31.7274 51.9793C32.4647 50.659 33.6663 49.7273 35.1876 49.2965C36.2972 48.9821 37.4685 48.9464 38.6994 49.1893C39.3445 49.3165 39.834 49.5003 40.7075 49.9432C42.0785 50.6383 43.1616 51.4624 44.2819 52.6628C45.2957 53.749 46.0133 54.8426 46.2134 55.6063C46.3042 55.9527 46.3668 56.5365 46.3527 56.9037C46.3285 57.5337 46.2852 57.6488 45.5838 58.9538C45.0646 59.9198 44.7341 60.4356 44.4874 60.6656ZM31.0865 72.261C29.6941 73.8032 27.7662 74.7613 25.7568 74.9094C24.5228 75.0004 23.5418 74.8604 22.3352 74.421C21.7127 74.1943 21.0519 74.0386 20.5905 74.0097C19.5561 73.9449 18.4748 74.281 17.343 75.0191C16.8317 75.3526 16.0857 75.7751 15.6854 75.9582C14.3256 76.5797 12.5745 76.7565 10.8371 76.4478C10.0411 76.3064 9.79781 76.2105 8.71138 75.6098C7.59749 74.994 7.43294 74.8711 6.9244 74.2758C5.82573 72.9895 5.32159 71.2376 5.54897 69.4961C5.65206 68.7062 5.66032 68.6879 6.91935 66.4334C8.34926 63.873 8.50274 63.682 10.1507 62.4112C10.6635 62.0157 11.2704 61.4899 11.4991 61.2426C12.0362 60.6623 12.8726 59.1628 13.0807 58.4066C13.1701 58.0815 13.3133 57.213 13.3987 56.4766C13.6294 54.4888 13.8849 53.7944 15.243 51.4646C16.3193 49.6178 16.4053 49.4974 16.9927 49.0148C18.3511 47.8988 20.0853 47.414 21.7788 47.6769C22.5534 47.7972 22.7428 47.8722 23.8523 48.498C24.9335 49.108 25.1429 49.2648 25.6808 49.8683C27.3167 51.7038 27.9811 53.6155 27.8875 56.2178C27.8427 57.4605 28.1486 58.6384 28.7303 59.4635C28.9727 59.8074 29.4703 60.3127 29.9127 60.6639C31.1342 61.6338 31.7071 62.3415 32.3261 63.645C33.0224 65.1112 33.2338 66.8678 32.9173 68.5547C32.7796 69.2883 32.6386 69.6629 32.1462 70.6036C31.7505 71.3595 31.3866 71.9286 31.0865 72.261Z" fill="white"/>
<path fill-rule="evenodd" clip-rule="evenodd" d="M378.226 179.97C377.26 180.547 376.701 180.814 376.451 180.818C376.25 180.82 375.872 180.707 375.611 180.565C375.252 180.371 375.091 180.216 374.958 179.932C374.405 178.755 375.379 177.393 376.715 177.478C377.184 177.508 377.316 177.573 378.43 178.319L379.637 179.127L378.226 179.97ZM382.174 172.459C381.047 171.737 380.903 171.616 380.695 171.222C380.401 170.664 380.436 169.929 380.781 169.386C381.095 168.893 381.614 168.611 382.199 168.615C382.512 168.617 382.721 168.697 383.047 168.942C383.285 169.12 383.547 169.416 383.629 169.599C383.731 169.828 383.722 170.452 383.6 171.596L383.422 173.26L382.174 172.459ZM371.337 180.658C370.814 181.09 369.888 181.496 369.302 181.551C368.631 181.613 366.736 181.505 365.888 181.355C363.492 180.932 360.946 179.739 359.796 178.5C358.632 177.246 358.012 175.423 358.202 173.813C358.324 172.783 358.574 172.076 359.12 171.224C359.935 169.951 361.19 169.092 362.734 168.753C363.86 168.506 365.032 168.54 366.246 168.856C366.882 169.022 367.36 169.235 368.205 169.729C369.532 170.505 370.564 171.392 371.611 172.658C372.558 173.803 373.209 174.937 373.363 175.711C373.433 176.063 373.46 176.649 373.424 177.015C373.362 177.642 373.312 177.755 372.534 179.015C371.958 179.949 371.597 180.444 371.337 180.658ZM379.298 168.17C378.335 168.927 377.345 169.148 375.808 168.951C374.563 168.791 373.097 168.36 371.834 167.784C370.622 167.231 369.175 166.175 368.492 165.345C367.697 164.378 367.174 163.328 366.927 162.201C366.587 160.656 366.84 159.157 367.655 157.883C368.2 157.032 368.737 156.508 369.619 155.967C371.032 155.1 372.978 154.906 374.589 155.47C375.945 155.945 377.687 157.287 378.98 158.852C379.689 159.709 380.658 161.295 381.129 162.367C381.461 163.124 381.547 164.272 381.328 165.029C381.112 165.776 379.84 167.744 379.298 168.17ZM359.173 184.3C358.006 184.554 356.879 184.743 356.668 184.721C355.764 184.626 355.021 183.736 355.072 182.811C355.097 182.365 355.177 182.194 355.904 181.056C356.644 179.896 356.719 179.807 356.835 179.947C357.714 180.998 358.898 182.075 360.358 183.149L361.295 183.839L359.173 184.3ZM378.879 153.954C377.38 153.111 376.253 152.636 374.615 152.157C374.442 152.107 374.492 152 375.234 150.843C375.963 149.707 376.084 149.562 376.478 149.353C377.325 148.903 378.428 149.224 378.907 150.059C379.03 150.275 379.332 151.384 379.576 152.524L380.021 154.596L378.879 153.954ZM353.151 180.225C352.188 180.981 351.198 181.203 349.661 181.005C348.416 180.845 346.95 180.415 345.687 179.839C344.475 179.286 343.028 178.23 342.345 177.4C341.55 176.433 341.027 175.383 340.779 174.255C340.44 172.711 340.693 171.212 341.508 169.938C342.053 169.086 342.59 168.562 343.472 168.021C344.885 167.155 346.83 166.961 348.442 167.525C349.798 168 351.54 169.341 352.833 170.907C353.541 171.764 354.51 173.349 354.981 174.422C355.314 175.179 355.4 176.326 355.181 177.083C354.965 177.831 353.693 179.799 353.151 180.225ZM371.324 151.866C370.801 152.298 369.875 152.704 369.289 152.759C368.617 152.821 366.723 152.712 365.875 152.563C363.479 152.14 360.933 150.947 359.782 149.708C358.618 148.454 357.999 146.631 358.189 145.021C358.311 143.991 358.561 143.284 359.106 142.432C359.921 141.158 361.176 140.3 362.721 139.961C363.847 139.714 365.019 139.748 366.233 140.064C366.869 140.23 367.347 140.443 368.192 140.937C369.519 141.713 370.551 142.6 371.598 143.866C372.545 145.01 373.195 146.145 373.349 146.919C373.419 147.27 373.447 147.857 373.411 148.223C373.349 148.85 373.299 148.962 372.521 150.223C371.945 151.156 371.584 151.651 371.324 151.866ZM357.253 162.639C355.771 164.095 353.789 164.936 351.775 164.964C350.538 164.981 349.567 164.783 348.388 164.272C347.781 164.008 347.13 163.813 346.672 163.757C345.643 163.63 344.543 163.901 343.369 164.57C342.839 164.872 342.069 165.25 341.659 165.408C340.264 165.947 338.506 166.019 336.79 165.607C336.004 165.418 335.766 165.308 334.718 164.644C333.643 163.962 333.486 163.83 333.014 163.205C331.994 161.855 331.596 160.076 331.927 158.352C332.077 157.569 332.086 157.551 333.478 155.376C335.059 152.906 335.223 152.725 336.944 151.555C337.48 151.191 338.117 150.702 338.36 150.469C338.931 149.922 339.856 148.475 340.109 147.732C340.217 147.413 340.412 146.555 340.541 145.825C340.891 143.855 341.187 143.177 342.682 140.932C343.867 139.153 343.96 139.038 344.575 138.592C345.998 137.559 347.758 137.179 349.433 137.542C350.199 137.709 350.383 137.795 351.454 138.486C352.496 139.16 352.696 139.329 353.197 139.963C354.72 141.893 355.269 143.841 355.02 146.433C354.901 147.671 355.136 148.865 355.667 149.724C355.888 150.081 356.355 150.616 356.775 150.993C357.937 152.034 358.466 152.775 359.006 154.113C359.613 155.618 359.719 157.384 359.303 159.049C359.121 159.773 358.958 160.139 358.41 161.048C357.97 161.779 357.573 162.325 357.253 162.639Z" fill="white"/>
<path fill-rule="evenodd" clip-rule="evenodd" d="M216.623 215.798C215.61 216.288 215.029 216.505 214.78 216.487C214.58 216.472 214.214 216.326 213.965 216.162C213.625 215.937 213.479 215.768 213.371 215.474C212.923 214.253 214.013 212.982 215.335 213.183C215.801 213.254 215.926 213.33 216.971 214.171L218.103 215.081L216.623 215.798ZM221.212 208.661C220.153 207.843 220.02 207.709 219.848 207.299C219.604 206.717 219.702 205.989 220.094 205.478C220.449 205.014 220.992 204.778 221.574 204.833C221.886 204.863 222.087 204.961 222.39 205.233C222.612 205.431 222.847 205.749 222.912 205.939C222.994 206.176 222.93 206.797 222.709 207.926L222.386 209.568L221.212 208.661ZM209.7 215.881C209.142 216.265 208.183 216.589 207.595 216.592C206.921 216.596 205.043 216.322 204.211 216.098C201.861 215.468 199.429 214.057 198.392 212.722C197.342 211.37 196.884 209.501 197.214 207.913C197.425 206.898 197.737 206.216 198.355 205.415C199.278 204.217 200.603 203.472 202.171 203.269C203.315 203.121 204.479 203.258 205.661 203.679C206.28 203.9 206.737 204.153 207.536 204.72C208.79 205.609 209.741 206.583 210.673 207.935C211.516 209.158 212.065 210.345 212.151 211.13C212.19 211.486 212.166 212.073 212.098 212.434C211.981 213.054 211.922 213.161 211.036 214.349C210.381 215.228 209.978 215.69 209.7 215.881ZM218.723 204.137C217.697 204.806 216.692 204.94 215.178 204.609C213.952 204.341 212.529 203.784 211.321 203.099C210.162 202.443 208.813 201.264 208.206 200.378C207.498 199.345 207.069 198.253 206.921 197.108C206.718 195.54 207.101 194.069 208.024 192.871C208.641 192.07 209.222 191.595 210.149 191.133C211.631 190.394 213.586 190.371 215.142 191.074C216.452 191.665 218.07 193.154 219.221 194.827C219.852 195.743 220.678 197.406 221.054 198.516C221.319 199.299 221.304 200.45 221.02 201.185C220.739 201.91 219.3 203.76 218.723 204.137ZM197.265 218.445C196.08 218.595 194.94 218.685 194.732 218.645C193.84 218.472 193.177 217.52 193.309 216.602C193.373 216.16 193.468 215.998 194.291 214.927C195.13 213.837 195.212 213.755 195.316 213.904C196.099 215.028 197.185 216.204 198.545 217.402L199.418 218.171L197.265 218.445ZM219.549 189.939C218.13 188.967 217.048 188.395 215.458 187.776C215.29 187.71 215.35 187.608 216.19 186.521C217.015 185.452 217.148 185.319 217.56 185.145C218.442 184.771 219.513 185.187 219.917 186.061C220.021 186.287 220.224 187.417 220.368 188.575L220.63 190.678L219.549 189.939ZM191.622 213.858C190.596 214.528 189.591 214.662 188.077 214.331C186.851 214.063 185.428 213.506 184.22 212.821C183.061 212.164 181.712 210.986 181.104 210.099C180.397 209.066 179.968 207.975 179.819 206.83C179.616 205.262 180 203.791 180.923 202.593C181.54 201.792 182.121 201.317 183.047 200.855C184.53 200.116 186.485 200.093 188.041 200.796C189.35 201.387 190.969 202.876 192.12 204.548C192.751 205.464 193.577 207.128 193.953 208.238C194.218 209.021 194.203 210.172 193.919 210.907C193.638 211.632 192.199 213.481 191.622 213.858ZM212.205 187.198C211.646 187.582 210.688 187.906 210.099 187.909C209.425 187.913 207.547 187.639 206.716 187.415C204.366 186.785 201.934 185.374 200.897 184.039C199.846 182.687 199.389 180.818 199.719 179.23C199.93 178.215 200.242 177.533 200.859 176.732C201.783 175.534 203.108 174.789 204.676 174.586C205.82 174.438 206.984 174.575 208.165 174.996C208.785 175.217 209.242 175.47 210.041 176.037C211.295 176.926 212.245 177.9 213.177 179.252C214.02 180.475 214.57 181.662 214.655 182.447C214.694 182.803 214.671 183.39 214.603 183.751C214.486 184.37 214.426 184.478 213.541 185.666C212.885 186.545 212.483 187.007 212.205 187.198ZM197.246 196.699C195.642 198.02 193.595 198.685 191.585 198.536C190.351 198.445 189.402 198.162 188.273 197.55C187.69 197.235 187.059 196.983 186.607 196.887C185.594 196.671 184.475 196.845 183.247 197.409C182.692 197.663 181.892 197.972 181.469 198.094C180.033 198.509 178.275 198.427 176.601 197.866C175.835 197.609 175.608 197.479 174.622 196.725C173.611 195.952 173.466 195.806 173.05 195.143C172.152 193.709 171.911 191.902 172.392 190.213C172.61 189.447 172.621 189.43 174.197 187.385C175.988 185.062 176.168 184.896 177.984 183.881C178.55 183.565 179.227 183.134 179.49 182.923C180.106 182.428 181.154 181.068 181.471 180.35C181.607 180.042 181.876 179.204 182.069 178.488C182.589 176.555 182.944 175.906 184.629 173.801C185.965 172.132 186.068 172.026 186.72 171.635C188.227 170.731 190.014 170.506 191.651 171.015C192.399 171.247 192.575 171.349 193.581 172.131C194.561 172.893 194.745 173.079 195.188 173.755C196.537 175.811 196.913 177.8 196.438 180.36C196.212 181.583 196.341 182.793 196.795 183.694C196.985 184.07 197.403 184.643 197.789 185.055C198.854 186.194 199.317 186.978 199.738 188.359C200.211 189.911 200.162 191.68 199.602 193.302C199.358 194.007 199.163 194.357 198.538 195.215C198.035 195.905 197.592 196.414 197.246 196.699Z" fill="white"/>
</svg>
